<svg width="42" height="75" viewBox="0 0 42 75" fill="none" xmlns="http://www.w3.org/2000/svg">
<path d="M39.4253 74.8751H26.646C26.2621 74.8752 25.8838 74.7809 25.5426 74.6001C25.2014 74.4192 24.9072 74.157 24.6846 73.8354L0.61803 39.1781C0.327825 38.7588 0.171875 38.2569 0.171875 37.7423C0.171875 37.2276 0.327825 36.7257 0.61803 36.3064L24.6846 1.64915C24.9072 1.32751 25.2014 1.06531 25.5426 0.884441C25.8838 0.703572 26.2621 0.609277 26.646 0.609429H39.4253C39.8599 0.606488 40.2871 0.72464 40.6617 0.951342C41.0362 1.17804 41.3441 1.50484 41.5526 1.89703C41.7612 2.28922 41.8626 2.73217 41.8461 3.17886C41.8296 3.62556 41.6958 4.05932 41.4589 4.43411L20.3406 37.7423L41.4589 71.0504C41.6958 71.4252 41.8296 71.8589 41.8461 72.3056C41.8626 72.7523 41.7612 73.1953 41.5526 73.5875C41.3441 73.9797 41.0362 74.3065 40.6617 74.5332C40.2871 74.7599 39.8599 74.878 39.4253 74.8751ZM27.8734 69.924H34.973L15.455 39.0914C15.2013 38.6898 15.0662 38.2212 15.0662 37.7423C15.0662 37.2633 15.2013 36.7947 15.455 36.3931L34.985 5.56047H27.8854L5.53964 37.7423L27.8734 69.924Z" fill="white"/>
</svg>
