<svg width="132" height="79" viewBox="0 0 132 79" fill="none" xmlns="http://www.w3.org/2000/svg">
<path d="M20.5085 29.0888H10.2184V33.2453H20.5085C21.4786 33.2453 22.2121 33.5849 22.709 34.2621C23.2059 34.9403 23.4539 35.8212 23.4539 36.906C23.4539 39.7374 22.9513 41.4841 21.9453 42.1471C20.9393 42.8091 18.2664 43.1406 13.9266 43.1406C9.07855 43.1406 6.16333 42.7939 5.1818 42.0944C4.19945 41.401 3.7091 39.3228 3.7091 35.8658H0C0 40.9194 0.811824 44.0824 2.43629 45.3698C4.06075 46.6573 7.89059 47.297 13.9266 47.297C19.3092 47.297 22.8118 46.7252 24.4363 45.5807C26.2541 44.278 27.163 41.476 27.163 37.1614C27.163 33.8403 26.3512 31.8524 24.7267 31.1904C25.5753 30.5578 26.1937 29.7894 26.5813 28.8861C26.9697 27.9747 27.163 26.6193 27.163 24.8118C27.163 20.8581 26.1456 18.268 24.1091 17.0251C22.3876 15.9708 18.9453 15.4446 13.7814 15.4446C8.32711 15.4446 4.79996 16.0164 3.19997 17.1609C1.33319 18.5163 0.399794 21.5282 0.399794 26.1976H4.10889C4.10889 23.3053 4.55763 21.5282 5.45431 20.8662C6.54517 20.0532 9.36983 19.6457 13.9266 19.6457C17.6602 19.6457 20.1814 19.9549 21.4909 20.5793C22.7996 21.1977 23.4539 22.5977 23.4539 24.7743C23.4539 26.1976 23.139 27.3046 22.5091 28.0872C21.9755 28.7573 21.3089 29.0888 20.5085 29.0888ZM33.4177 15.8055H54.291C57.3694 15.8055 59.4662 16.5131 60.5816 17.9294C62.2297 20.0451 63.0546 24.4955 63.0546 31.2806C63.0546 38.0353 62.2297 42.4705 60.5816 44.5862C59.4662 46.0318 57.3694 46.7556 54.291 46.7556H33.4177V15.8055ZM37.1268 42.5982H54.2543C56.2663 42.5982 57.6182 41.8379 58.3093 40.3091C58.9996 38.7885 59.3455 35.7756 59.3455 31.2806C59.3455 26.815 58.9938 23.8102 58.2905 22.2743C57.588 20.7304 56.2426 19.962 54.2543 19.962H37.1268V42.5982ZM75.0182 26.0841V30.942C75.5273 30.1279 76.3269 29.5106 77.412 29.0888C79.0365 28.4563 81.4303 28.14 84.6001 28.14C90.3881 28.14 93.9936 28.6073 95.4239 29.541C97.0908 30.6257 97.9271 33.3213 97.9271 37.6288C97.9271 41.7852 97.121 44.421 95.5087 45.5351C93.8965 46.6502 90.2543 47.2068 84.5814 47.2068C78.0843 47.2068 74.248 46.4617 73.0722 44.9704C71.8965 43.4792 71.3091 38.8635 71.3091 31.1224C71.3091 24.1944 71.903 19.9326 73.091 18.3359C74.5449 16.3783 78.3756 15.399 84.5814 15.399C90.1817 15.399 93.806 16.0093 95.4541 17.2289C97.103 18.4484 97.9271 21.1369 97.9271 25.2933H94.218C94.218 22.7113 93.7089 21.1146 92.6906 20.4891C91.6789 19.8646 88.9815 19.5554 84.6001 19.5554H84.4541C80.6063 19.5554 78.0729 19.9468 76.8482 20.7375C75.6301 21.5211 75.0182 23.3053 75.0182 26.0841ZM84.6001 32.2974C80.2669 32.2974 77.5874 32.5985 76.5635 33.2007C75.533 33.8028 75.0182 35.2789 75.0182 37.6288C75.0182 39.9776 75.533 41.4689 76.5635 42.1015C77.5874 42.7341 80.2669 43.0504 84.6001 43.0504C88.9334 43.0504 91.6177 42.7412 92.6547 42.1238C93.6966 41.5064 94.218 40.0081 94.218 37.6288C94.218 35.2789 93.6966 33.8028 92.6547 33.2007C91.6177 32.5985 88.9334 32.2974 84.6001 32.2974ZM130.909 19.962H108.545V27.8693C108.86 26.9802 109.818 26.371 111.418 26.0313C113.018 25.6927 115.285 25.5194 118.218 25.5194C123.746 25.5194 127.358 26.1226 129.055 27.3269C131.018 28.7127 132 31.7246 132 36.3636C132 41.0015 131.018 44.0144 129.055 45.4003C127.358 46.6046 123.758 47.2068 118.254 47.2068C112.339 47.2068 108.594 46.6502 107.018 45.5351C105.321 44.3307 104.472 41.5287 104.472 37.132H108.181C108.181 39.8124 108.727 41.4689 109.818 42.1015C110.909 42.7341 113.721 43.0504 118.254 43.0504C122.691 43.0504 125.473 42.6661 126.6 41.8977C127.727 41.1303 128.291 39.2548 128.291 36.2734C128.291 33.2909 127.77 31.4458 126.727 30.7382C125.685 30.0306 122.848 29.6768 118.218 29.6768C114.266 29.6768 111.739 29.8421 110.636 30.1736C109.533 30.5051 108.837 31.2877 108.545 32.5225H104.836V15.8055H130.909V19.962Z" fill="#39A352"/>
<path d="M62.6295 62.9708C62.2966 62.9708 61.9898 62.9525 61.7091 62.9181C61.4293 62.8826 61.1714 62.8167 60.9356 62.7204C60.7007 62.6251 60.4812 62.4933 60.278 62.327C60.0749 62.1608 59.888 61.9408 59.7175 61.6691C59.5878 61.4765 59.4735 61.2626 59.3765 61.0254C59.2785 60.7881 59.1978 60.5154 59.1325 60.2083C59.068 59.9001 59.0191 59.5493 58.9865 59.156C58.9538 58.7627 58.9375 58.3136 58.9375 57.8087C58.9375 56.9206 58.9848 56.1431 59.0778 55.4771C59.1717 54.811 59.3724 54.2362 59.6808 53.7516C59.8758 53.4384 60.0953 53.192 60.3384 53.0096C60.5824 52.8281 60.8361 52.6892 61.1005 52.5939C61.364 52.4976 61.63 52.4368 61.8984 52.4114C62.166 52.3871 62.4222 52.3739 62.6662 52.3739H66.2725V55.0077H63.9936C63.766 55.0077 63.5555 55.0107 63.3605 55.0158C63.1655 55.0209 62.9868 55.0513 62.8245 55.106C62.6621 55.1618 62.5152 55.2449 62.3855 55.3564C62.2558 55.4669 62.1424 55.6291 62.0445 55.841C61.9792 55.9718 61.9286 56.1208 61.8919 56.287C61.856 56.4533 61.8291 56.6256 61.8127 56.802C61.7964 56.9784 61.7842 57.1477 61.7768 57.3089C61.7687 57.4701 61.7646 57.6171 61.7646 57.7479C61.7646 58.0409 61.7728 58.2882 61.7883 58.4899C61.8046 58.6917 61.8233 58.861 61.8437 58.9968C61.8641 59.1327 61.8862 59.2411 61.9107 59.3222C61.9351 59.4033 61.9555 59.4642 61.971 59.5037C62.0608 59.7156 62.1766 59.8778 62.3186 59.9883C62.4606 60.0998 62.6213 60.1799 62.8 60.2306C62.9787 60.2813 63.1737 60.3117 63.385 60.3218C63.5955 60.332 63.815 60.337 64.0426 60.337H66.4063V62.9708H62.6295ZM71.7219 58.3683H73.4761L72.7091 55.6889C72.6928 55.6494 72.674 55.6007 72.6536 55.545C72.6332 55.4902 72.6153 55.4618 72.599 55.4618C72.5827 55.4618 72.5647 55.4902 72.5443 55.545C72.5239 55.6007 72.506 55.6494 72.4896 55.6889L71.7219 58.3683ZM70.6498 53.5398C70.7151 53.3482 70.7917 53.1718 70.8815 53.0096C70.9704 52.8484 71.0887 52.7125 71.2348 52.601C71.3808 52.4905 71.5611 52.4043 71.7765 52.3435C71.9919 52.2837 72.2661 52.2533 72.599 52.2533C72.8021 52.2533 72.9988 52.2655 73.1897 52.2908C73.3806 52.3161 73.5593 52.3719 73.7257 52.4571C73.8922 52.5432 74.0472 52.672 74.1892 52.8433C74.3311 53.0146 74.4511 53.2468 74.5482 53.5398L77.7041 62.9708H74.8044L74.1345 60.7912H71.0643L70.3936 62.9708H67.4939L70.6498 53.5398ZM85.0545 62.9708L83.5068 59.9883L81.9598 62.9708H78.6701L81.8986 57.5968L78.768 52.3739H82.0569L83.5068 55.2054L84.9566 52.3739H88.2463L85.1149 57.5968L88.3434 62.9708H85.0545ZM93.4159 58.3683H95.1701L94.4023 55.6889C94.386 55.6494 94.3681 55.6007 94.3477 55.545C94.3273 55.4902 94.3093 55.4618 94.293 55.4618C94.2767 55.4618 94.2587 55.4902 94.2383 55.545C94.2179 55.6007 94.2 55.6494 94.1837 55.6889L93.4159 58.3683ZM92.3438 53.5398C92.4083 53.3482 92.4858 53.1718 92.5755 53.0096C92.6645 52.8484 92.782 52.7125 92.9288 52.601C93.0749 52.4905 93.2552 52.4043 93.4706 52.3435C93.686 52.2837 93.9601 52.2533 94.293 52.2533C94.4962 52.2533 94.6928 52.2655 94.8837 52.2908C95.0746 52.3161 95.2533 52.3719 95.4198 52.4571C95.5862 52.5432 95.7412 52.672 95.8832 52.8433C96.0252 53.0146 96.1451 53.2468 96.2422 53.5398L99.3981 62.9708H96.4984L95.8285 60.7912H92.7583L92.0876 62.9708H89.1879L92.3438 53.5398ZM103.519 53.3431C103.609 53.0907 103.731 52.8909 103.885 52.745C104.04 52.599 104.204 52.4875 104.378 52.4114C104.553 52.3364 104.728 52.2908 104.902 52.2756C105.077 52.2604 105.229 52.2533 105.359 52.2533C105.49 52.2533 105.641 52.2604 105.816 52.2756C105.991 52.2908 106.165 52.3364 106.34 52.4114C106.514 52.4875 106.679 52.599 106.833 52.745C106.988 52.8909 107.11 53.0907 107.199 53.3431L110.476 62.9708H107.552L105.494 55.9616C105.477 55.9312 105.459 55.8815 105.438 55.8106C105.418 55.7396 105.392 55.7041 105.359 55.7041C105.326 55.7041 105.3 55.7396 105.28 55.8106C105.26 55.8815 105.242 55.9312 105.225 55.9616L103.166 62.9708H100.243L103.519 53.3431ZM118.29 62.9708L118.412 56.7493C118.412 56.6479 118.408 56.5577 118.4 56.4766C118.392 56.3955 118.355 56.355 118.29 56.355C118.249 56.355 118.209 56.3986 118.168 56.4837C118.127 56.5699 118.062 56.6986 117.973 56.87L115.548 62.0168C115.492 62.1385 115.418 62.2642 115.329 62.395C115.24 62.5267 115.124 62.6423 114.982 62.7437C114.84 62.844 114.665 62.9272 114.458 62.9931C114.251 63.059 114.001 63.0914 113.709 63.0914C113.286 63.0914 112.951 63.0184 112.704 62.8724C112.456 62.7254 112.265 62.5338 112.131 62.2966C111.997 62.0594 111.91 61.7897 111.869 61.4866C111.828 61.1845 111.808 60.8713 111.808 60.5489V52.3739H114.611L114.488 58.4443V58.6106C114.488 58.6815 114.495 58.7596 114.507 58.8458C114.519 58.9309 114.562 58.9745 114.634 58.9745C114.675 58.9745 114.712 58.9411 114.744 58.8762C114.777 58.8103 114.821 58.717 114.878 58.5954L117.23 53.4941C117.359 53.2012 117.506 52.972 117.669 52.8058C117.831 52.6385 117.995 52.5159 118.161 52.4348C118.328 52.3537 118.491 52.303 118.649 52.2837C118.808 52.2634 118.948 52.2533 119.07 52.2533C119.557 52.2533 119.937 52.3486 120.209 52.5402C120.481 52.7328 120.682 52.9639 120.811 53.2366C120.941 53.5093 121.02 53.7972 121.049 54.0994C121.077 54.4025 121.092 54.66 121.092 54.8718V62.9708H118.29ZM132 62.9708H129.246V58.7626H126.152V62.9708H123.399V52.3739H126.152V56.1279H129.246V52.3739H132V62.9708Z" fill="#F26B35"/>
<path fill-rule="evenodd" clip-rule="evenodd" d="M12.897 24.4529C13.3604 25.3663 14.692 25.2092 15.5299 25.6279C17.3004 26.5129 15.8701 25.9573 18.1057 26.8119C18.0625 27.7132 18.0004 27.2296 17.6822 27.8642C18.1236 29.026 19.5678 28.9226 18.4671 30.3388C18.0396 30.8883 17.8291 30.5314 17.2131 30.7717C16.4649 31.0626 16.4005 32.6248 16.9186 33.5676C17.2229 34.1222 17.7092 34.1647 18.7845 35.2312C19.4389 35.88 19.6722 36.2835 20.4449 37.1482C21.0527 37.8285 21.3285 38.3039 21.8262 39.4109C23.0362 42.1025 22.5287 41.5246 24.9038 43.5461C26.3789 44.8011 26.3439 43.9911 26.72 45.2462C28.1103 45.1945 27.6934 44.5142 30.0693 45.3708C31.2687 45.8027 31.2376 45.825 31.9279 46.6178C32.9772 47.8262 33.4365 49.8081 35.1711 51.1179C36.8315 52.3719 35.8475 50.8431 38.5473 54.1723C40.3537 56.3996 40.3284 55.9312 42.3584 59.1002C42.9499 60.0227 43.3538 61.2839 43.9347 61.9783C46.6403 65.2091 49.3442 63.8203 49.9055 66.6436C50.1617 67.927 53.1079 71.1802 54.4183 73.1175C55.0522 74.0552 55.6013 74.8145 56.188 75.7502C56.6661 76.5126 57.6264 77.2212 58.3313 77.9186C59.0232 78.6019 60.0251 79.6441 60.9765 78.4671C61.0597 76.8907 57.2772 73.0566 58.9237 71.2207C59.3496 70.7463 61.0874 69.4487 61.9874 69.6514C62.9053 69.8582 64.0451 71.1376 64.9344 71.3049C64.8169 69.1344 61.5998 67.188 60.9789 67.1191C60.8949 67.2539 60.9455 68.1632 59.259 68.0061C58.3362 67.9199 58.0996 67.4009 57.5154 66.9954C56.6685 66.4064 54.548 67.1322 53.192 66.2513C50.9066 64.7651 48.3031 58.2355 46.8703 55.769C46.1132 54.4653 45.6848 53.2153 46.7888 51.4575C49.221 47.5869 53.4449 49.7097 54.5415 49.0437C53.5053 48.2378 51.6262 48.6524 48.7485 47.0405C47.8763 46.5529 47.1788 46.0318 46.3147 45.5168L41.0366 42.8344C40.1449 42.3843 39.3412 41.7598 38.5359 41.2499C37.3235 40.4815 34.7199 38.4996 33.4088 38.1894C33.0857 38.4752 33.3149 38.3171 33.0408 38.6334C32.7169 38.1752 32.3334 37.7433 32.0307 37.3926C31.4123 36.6779 29.4843 35.4745 28.2702 34.403C28.1894 33.1064 28.9278 33.7744 27.389 31.6476C25.8192 29.4781 23.1928 27.9808 20.954 26.8494C17.4938 25.1017 16.4192 22.6575 14.5084 22.1821C13.7569 21.9956 13.5375 22.1679 13.4518 23.0124C13.3384 24.1336 13.1915 23.6561 12.897 24.4529Z" fill="#F26B35"/>
<path fill-rule="evenodd" clip-rule="evenodd" d="M74.3882 52.4368L74.3155 52.6111L74.4551 52.7003L74.3825 52.8747L74.5228 52.9649L74.4502 53.1393L74.5905 53.2295L74.5179 53.4039L74.9381 53.6746L74.7929 54.0223L74.9332 54.1125L74.8606 54.2869L75.0009 54.3771L74.9283 54.5515L75.0686 54.6417L74.4877 56.0346L73.7868 55.5835L73.6416 55.9312L73.782 56.0214L73.6367 56.3702L74.4771 56.9115L74.3319 57.2602L74.4722 57.3505L74.3996 57.5238L74.6803 57.7043L74.6076 57.8786L74.748 57.9689L74.4567 58.6653L75.0172 59.0262L74.9446 59.2006L75.0849 59.2908L75.0123 59.4642L75.1527 59.5554L75.0074 59.9031L75.1478 59.9933L75.0752 60.1677L75.2155 60.2579L75.1429 60.4323L75.2824 60.5225L75.2106 60.6959L75.3501 60.7861L75.2049 61.1348L75.9057 61.586L75.8331 61.7603L75.9735 61.8506L75.7556 62.3726L75.8959 62.4629L75.7507 62.8106L76.3112 63.1715L76.2386 63.3459L76.6588 63.6165L76.804 63.2678L76.6637 63.1786L76.7363 63.0042L76.596 62.914L76.6686 62.7396L76.3888 62.5592L76.4614 62.3848L76.321 62.2946L76.5389 61.7725L76.3985 61.6823L76.4712 61.5079L76.3316 61.4177L76.4043 61.2433L76.1236 61.0629L76.1962 60.8895L76.0559 60.7993L76.1285 60.6249L75.9881 60.5347L76.0608 60.3603L75.9212 60.2701L76.0665 59.9224L75.9261 59.8322L76.0714 59.4834L75.7907 59.303L75.8633 59.1296L75.723 59.0394L75.7964 58.865L75.2351 58.5041L75.3803 58.1554L75.5206 58.2456L75.8837 57.3748L75.7434 57.2846L75.816 57.1112L75.6765 57.021L75.7491 56.8466L75.6088 56.7564L75.6814 56.582L75.541 56.4918L75.6136 56.3174L75.4733 56.2272L75.5459 56.0539L75.4064 55.9636L75.479 55.7893L75.3387 55.6991L75.4839 55.3503L75.3436 55.2601L75.4162 55.0857L75.2759 54.9955L75.4937 54.4734L75.3534 54.3832L75.5712 53.8611L75.4317 53.7709L75.5043 53.5965L75.364 53.5063L75.4366 53.3319L75.2963 53.2417L75.732 52.1975L75.5916 52.1073L75.6642 51.9329L75.3844 51.7525L75.3118 51.9268L75.0311 51.7464L75.1037 51.572L74.6835 51.3014L74.2478 52.3465L74.3882 52.4368Z" fill="#F26B35"/>
<path fill-rule="evenodd" clip-rule="evenodd" d="M60.1442 2.18567L60.0716 2.36004L60.212 2.45026L60.1393 2.62463L60.2797 2.71384L60.2071 2.88821L60.3466 2.97843L60.274 3.1528L60.4143 3.24303L60.3417 3.41739L60.6224 3.59784L60.5497 3.77221L61.1103 4.13311L61.0376 4.30646L61.3175 4.48691L61.2449 4.66128L61.3852 4.7515L61.3126 4.92587L61.453 5.01609L61.3803 5.18945L61.5207 5.28068L61.448 5.45404L61.5884 5.54426L61.3705 6.06736L61.5101 6.15759L61.3648 6.50531L61.5052 6.59553L61.4326 6.7699L61.5729 6.86012L61.2098 7.73094L61.4897 7.91139L61.5623 7.73702L61.7026 7.82725L61.7752 7.65289L62.1962 7.92356L62.1228 8.09793L62.6833 8.45883L63.0464 7.588L62.9069 7.49778L62.9795 7.32341L62.8392 7.23319L62.9118 7.05983L62.7714 6.9686L62.8441 6.79524L62.7037 6.70502L62.849 6.35628L62.7094 6.26606L62.9273 5.74397L62.7869 5.65375L62.9322 5.30502L62.6515 5.12558L62.7241 4.95121L62.5838 4.86099L62.6564 4.68662L62.5169 4.59639L62.5895 4.42203L62.4492 4.3318L62.5218 4.15744L62.1016 3.88676L62.1742 3.71341L61.8935 3.53296L61.9661 3.35859L61.8258 3.26837L61.971 2.91964L60.5701 2.01739L60.4967 2.19175L60.0765 1.92108L60.0039 2.09545L60.1442 2.18567Z" fill="#F26B35"/>
<path fill-rule="evenodd" clip-rule="evenodd" d="M74.0012 43.1325L73.856 43.4802L73.9963 43.5704L73.9237 43.7448L74.2035 43.9252L74.0583 44.273L74.1986 44.3632L74.126 44.5375L74.2664 44.6278L74.1937 44.8021L74.3341 44.8924L74.2615 45.0667L74.401 45.1559L74.3284 45.3303L74.4687 45.4205L74.3961 45.5949L74.5364 45.6851L74.4638 45.8595L74.7437 46.0399L74.671 46.2143L74.8114 46.3045L74.5209 47.001L74.8016 47.1814L74.729 47.3548L74.8693 47.445L74.7967 47.6194L74.9362 47.7096L74.8636 47.884L75.0039 47.9742L74.9313 48.1486L75.6322 48.5987L75.85 48.0766L75.7097 47.9864L75.7823 47.813L75.642 47.7228L75.7146 47.5484L75.5751 47.4582L75.6477 47.2838L75.5073 47.1936L75.6526 46.8459L75.5122 46.7556L75.5849 46.5813L75.305 46.4008L75.4502 46.0521L75.3099 45.9619L75.4551 45.6142L75.3148 45.5239L75.3874 45.3496L75.2471 45.2593L75.3197 45.085L75.1794 44.9947L75.252 44.8214L75.1124 44.7302L75.2577 44.3824L74.6972 44.0215L74.8424 43.6728L74.702 43.5826L74.7747 43.4092L74.6343 43.319L74.7069 43.1446L74.5666 43.0544L74.6392 42.88L74.4989 42.7898L74.5715 42.6155L74.432 42.5252L74.5772 42.1775L74.4369 42.0873L74.5095 41.9129L74.3692 41.8227L73.8609 43.0422L74.0012 43.1325Z" fill="#F26B35"/>
<path fill-rule="evenodd" clip-rule="evenodd" d="M75.066 67.0086L74.9934 67.1829L75.274 67.3634L75.2014 67.5377L75.4813 67.7182L75.4087 67.8926L75.6893 68.073L75.6167 68.2474L75.7571 68.3366L75.6844 68.5109L75.8248 68.6012L75.7522 68.7755L75.8917 68.8658L75.8191 69.0401L76.0997 69.2206L76.0271 69.3939L76.1675 69.4842L76.0948 69.6585L76.515 69.9292L76.3698 70.2779L76.5101 70.3682L76.4375 70.5415L76.5779 70.6328L76.5044 70.8061L76.6448 70.8963L76.5721 71.0707L76.7125 71.1609L76.6399 71.3353L76.7802 71.4255L76.7076 71.5999L76.8479 71.6901L76.7753 71.8635L77.3358 72.2244L77.6263 71.5279L77.0658 71.167L77.1384 70.9926L76.998 70.9024L77.0707 70.7291L76.9303 70.6388L77.0029 70.4645L76.8626 70.3742L77.0805 69.8522L76.6603 69.5815L76.7329 69.4071L76.5925 69.3169L76.6652 69.1425L76.3853 68.9621L76.4579 68.7877L76.3176 68.6975L76.3902 68.5241L76.2499 68.4339L76.3951 68.0852L76.1144 67.9047L76.187 67.7304L76.0475 67.6401L76.4106 66.7703L76.2703 66.6801L76.3429 66.5057L76.2025 66.4155L76.2752 66.2411L76.1348 66.1509L76.2074 65.9765L76.0679 65.8863L76.1405 65.712L76.2801 65.8022L76.3527 65.6288L76.2131 65.5386L76.2858 65.3642L76.0051 65.1838L75.5694 66.229L75.4291 66.1388L75.3564 66.3121L75.2169 66.2219L75.1443 66.3962L75.004 66.306L74.7861 66.8281L75.066 67.0086Z" fill="#F26B35"/>
<path fill-rule="evenodd" clip-rule="evenodd" d="M60.445 0.612312L60.2998 0.961046L60.4393 1.05026L60.3667 1.22462L60.6474 1.40507L60.5748 1.57944L60.7151 1.66966L60.6417 1.84403L61.0627 2.11471L61.1353 1.94034L61.2756 2.03056L61.6387 1.15974L61.358 0.979293L61.4306 0.804926L61.2903 0.714703L61.3629 0.540336L60.5225 0L60.3047 0.522086L60.445 0.612312Z" fill="#F26B35"/>
<path fill-rule="evenodd" clip-rule="evenodd" d="M64.4073 11.9979L64.3347 12.1722L64.7557 12.4429L64.6831 12.6163L65.1033 12.888L65.0307 13.0613L65.171 13.1515L65.0984 13.3259L65.7992 13.777L66.1623 12.9062L64.9009 12.0942L64.9735 11.9208L64.2727 11.4697L64.1274 11.8174L64.4073 11.9979Z" fill="#F26B35"/>
<path fill-rule="evenodd" clip-rule="evenodd" d="M72.7213 31.7064L72.6486 31.8808L72.789 31.971L72.7164 32.1443L72.8567 32.2346L72.7841 32.4089L73.0648 32.5894L72.9913 32.7637L73.1317 32.854L73.0591 33.0283L73.1994 33.1186L73.1268 33.2929L73.2671 33.3832L73.1945 33.5565L73.334 33.6467L73.2622 33.8211L73.4017 33.9113L73.3291 34.0857L73.4694 34.1759L73.3242 34.5236L73.6049 34.7041L73.8227 34.182L73.6824 34.0918L73.755 33.9174L73.6147 33.8272L73.6873 33.6538L73.547 33.5636L73.6922 33.2149L73.5518 33.1246L73.6253 32.9503L73.3446 32.7698L73.4172 32.5955L73.2769 32.5052L73.3495 32.3319L73.0697 32.1514L73.1423 31.9771L72.8616 31.7966L72.9342 31.6223L72.7939 31.532L72.8665 31.3587L72.5866 31.1782L72.4414 31.5259L72.7213 31.7064Z" fill="#F26B35"/>
<path fill-rule="evenodd" clip-rule="evenodd" d="M79.2434 65.9431L79.0982 66.2918L79.2385 66.382L79.0933 66.7298L79.6538 67.0907L79.8716 66.5686L79.7313 66.4784L79.8039 66.304L79.6644 66.2138L79.737 66.0394L79.5967 65.9492L79.7419 65.6015L79.3217 65.3308L79.1039 65.8529L79.2434 65.9431Z" fill="#F26B35"/>
<path fill-rule="evenodd" clip-rule="evenodd" d="M58.6347 4.52747L58.7073 4.3531L59.1275 4.62377L59.2001 4.44941L59.0598 4.35918L59.2776 3.83709L58.7179 3.4762L58.354 4.34702L58.6347 4.52747Z" fill="#F26B35"/>
<path fill-rule="evenodd" clip-rule="evenodd" d="M67.1649 17.7489L67.0923 17.9233L67.3722 18.1027L67.2996 18.2771L67.5802 18.4575L67.7255 18.1098L67.4448 17.9294L67.5174 17.755L67.3779 17.6648L67.4497 17.4904L67.3102 17.4002L67.3828 17.2258L67.1021 17.0454L66.8843 17.5685L67.1649 17.7489Z" fill="#F26B35"/>
<path fill-rule="evenodd" clip-rule="evenodd" d="M66.2476 14.6326C66.3129 14.4755 66.4679 14.4147 66.5944 14.4958C66.7201 14.5769 66.7698 14.7695 66.7046 14.9256C66.6385 15.0827 66.4834 15.1436 66.3578 15.0625C66.2313 14.9814 66.1824 14.7887 66.2476 14.6326Z" fill="#F26B35"/>
<path fill-rule="evenodd" clip-rule="evenodd" d="M66.1591 17.7428C66.2154 17.609 66.3476 17.5573 66.4553 17.6262C66.563 17.6952 66.6046 17.8594 66.5491 17.9932C66.4937 18.127 66.3615 18.1798 66.2538 18.1098C66.1461 18.0409 66.1037 17.8766 66.1591 17.7428Z" fill="#F26B35"/>
<path fill-rule="evenodd" clip-rule="evenodd" d="M69.319 23.9075C69.3745 23.7737 69.5066 23.721 69.6143 23.7899C69.722 23.8599 69.7645 24.0241 69.709 24.1579C69.6527 24.2917 69.5205 24.3434 69.4128 24.2745C69.3051 24.2056 69.2635 24.0403 69.319 23.9075Z" fill="#F26B35"/>
<path fill-rule="evenodd" clip-rule="evenodd" d="M70.6984 25.7921C70.7547 25.6583 70.9399 25.64 71.1129 25.7515C71.2867 25.8631 71.3813 26.0617 71.3258 26.1956C71.2695 26.3294 71.0843 26.3466 70.9114 26.2351C70.7384 26.1236 70.6429 25.9259 70.6984 25.7921Z" fill="#F26B35"/>
<path fill-rule="evenodd" clip-rule="evenodd" d="M71.9614 29.6788C72.0169 29.545 72.1491 29.4923 72.2568 29.5623C72.3645 29.6312 72.4069 29.7954 72.3506 29.9292C72.2951 30.0631 72.163 30.1158 72.0553 30.0458C71.9476 29.9769 71.9051 29.8127 71.9614 29.6788Z" fill="#F26B35"/>
<path fill-rule="evenodd" clip-rule="evenodd" d="M62.4677 12.7906C62.533 12.6335 62.688 12.5727 62.8145 12.6538C62.9409 12.7349 62.9899 12.9275 62.9246 13.0846C62.8593 13.2407 62.7043 13.3016 62.5779 13.2205C62.4522 13.1394 62.4024 12.9467 62.4677 12.7906Z" fill="#F26B35"/>
</svg>
