<svg width="10" height="6" viewBox="0 0 10 6" fill="none" xmlns="http://www.w3.org/2000/svg">
<path d="M9.90008 0.685274L9.39911 0.184342C9.33236 0.117448 9.25546 0.0841064 9.16853 0.0841064C9.08181 0.0841064 9.00494 0.117448 8.93819 0.184342L5.00005 4.12227L1.06209 0.184447C0.995301 0.117553 0.918439 0.0842117 0.831611 0.0842117C0.744747 0.0842117 0.667886 0.117553 0.601132 0.184447L0.100235 0.685414C0.0333416 0.752168 0 0.829029 0 0.915893C0 1.00269 0.0334469 1.07955 0.100235 1.1463L4.76957 5.81574C4.83633 5.88253 4.91322 5.91591 5.00005 5.91591C5.08688 5.91591 5.16364 5.88253 5.23036 5.81574L9.90008 1.1463C9.96683 1.07951 10 1.00265 10 0.915893C10 0.829029 9.96683 0.752168 9.90008 0.685274Z" fill="white"/>
</svg>
